<svg width="46" height="46" viewBox="0 0 46 46" fill="none" xmlns="http://www.w3.org/2000/svg">
<path d="M38.3335 17.25C39.3502 17.25 40.3252 17.6539 41.0441 18.3728C41.763 19.0917 42.1668 20.0667 42.1668 21.0833V40.7982C42.1668 41.0673 42.087 41.3304 41.9374 41.5541C41.7879 41.7779 41.5754 41.9523 41.3267 42.0553C41.0781 42.1582 40.8045 42.1852 40.5406 42.1327C40.2766 42.0802 40.0341 41.9506 39.8438 41.7603L35.6233 37.5398C34.9046 36.8209 33.9297 36.4169 32.9132 36.4167H19.1668C18.1502 36.4167 17.1751 36.0128 16.4563 35.2939C15.7374 34.575 15.3335 33.6 15.3335 32.5833V30.6667M30.6668 19.1667C30.6668 20.1833 30.263 21.1584 29.5441 21.8773C28.8252 22.5961 27.8502 23 26.8335 23H13.0872C12.0706 23.0002 11.0957 23.4042 10.377 24.1232L6.1565 28.3437C5.96618 28.534 5.72372 28.6635 5.45977 28.716C5.19581 28.7685 4.92222 28.7416 4.67358 28.6386C4.42495 28.5356 4.21243 28.3612 4.06289 28.1375C3.91336 27.9137 3.83353 27.6506 3.8335 27.3815V7.66668C3.8335 6.65001 4.23736 5.67499 4.95625 4.9561C5.67514 4.23721 6.65017 3.83334 7.66683 3.83334H26.8335C27.8502 3.83334 28.8252 4.23721 29.5441 4.9561C30.263 5.67499 30.6668 6.65001 30.6668 7.66668V19.1667Z" stroke="#004342" stroke-width="2" stroke-linecap="round" stroke-linejoin="round"/>
</svg>
