<svg width="34" height="34" viewBox="0 0 34 34" fill="none" xmlns="http://www.w3.org/2000/svg">
<g opacity="0.6">
<path fill-rule="evenodd" clip-rule="evenodd" d="M13.8125 4.24999C12.5567 4.24999 11.3133 4.49733 10.1531 4.97789C8.99291 5.45845 7.93875 6.16282 7.05079 7.05078C6.16283 7.93874 5.45846 8.9929 4.9779 10.1531C4.49734 11.3133 4.25 12.5567 4.25 13.8125C4.25 15.0683 4.49734 16.3117 4.9779 17.4719C5.45846 18.6321 6.16283 19.6862 7.05079 20.5742C7.93875 21.4622 8.99291 22.1665 10.1531 22.6471C11.3133 23.1276 12.5567 23.375 13.8125 23.375C16.3486 23.375 18.7809 22.3675 20.5742 20.5742C22.3675 18.7809 23.375 16.3486 23.375 13.8125C23.375 11.2764 22.3675 8.8441 20.5742 7.05078C18.7809 5.25746 16.3486 4.24999 13.8125 4.24999ZM2.125 13.8125C2.12538 11.9356 2.57777 10.0865 3.4439 8.42139C4.31002 6.75633 5.56441 5.32434 7.10096 4.24655C8.63752 3.16877 10.411 2.47688 12.2715 2.22942C14.132 1.98195 16.0247 2.18619 17.7896 2.82486C19.5544 3.46352 21.1395 4.51783 22.4108 5.8986C23.682 7.27937 24.602 8.946 25.093 10.7575C25.584 12.569 25.6315 14.4721 25.2315 16.3059C24.8314 18.1396 23.9957 19.85 22.7949 21.2925L29.4398 27.9352L27.9352 29.4397L21.2925 22.7949C19.5857 24.2165 17.5091 25.1223 15.3059 25.4062C13.1028 25.69 10.8644 25.3401 8.85301 24.3975C6.84159 23.4549 5.14044 21.9586 3.94886 20.084C2.75728 18.2093 2.12462 16.0338 2.125 13.8125Z" fill="#2B0055"/>
</g>
</svg>
