<svg width="54" height="54" viewBox="0 0 54 54" fill="none" xmlns="http://www.w3.org/2000/svg">
<path d="M26.9995 4.99579C27.7962 4.99579 28.5752 5.23401 29.2358 5.67938C29.8964 6.12474 30.4087 6.75727 30.7075 7.49579L30.8003 7.7243L31.0386 7.78973C34.2607 8.67473 37.103 10.5941 39.1284 13.2516C41.1539 15.9092 42.2504 19.1583 42.2495 22.4997V33.2194L42.3335 33.3454L46.4556 39.529C46.6313 39.7924 46.7331 40.0984 46.7485 40.4147C46.7639 40.7312 46.6929 41.0465 46.5435 41.3259C46.394 41.6051 46.1716 41.8389 45.8999 42.0016C45.6281 42.1645 45.3163 42.2497 44.9995 42.2497H34.3628L34.3013 42.6784C34.0476 44.4339 33.1695 46.0398 31.8286 47.2009C30.4877 48.3617 28.7731 49.0007 26.9995 49.0007C25.2259 49.0006 23.5113 48.3619 22.1704 47.2009C20.8295 46.0398 19.9524 44.4339 19.6987 42.6784L19.6362 42.2497H8.99951C8.6828 42.2497 8.37181 42.1644 8.1001 42.0016C7.82837 41.8389 7.60601 41.6051 7.45654 41.3259C7.30708 41.0465 7.23609 40.7312 7.25146 40.4147C7.26689 40.0985 7.36781 39.7924 7.54346 39.529L11.6655 33.3454L11.7495 33.2194V22.4997C11.7497 15.4768 16.4989 9.55971 22.9604 7.79071L23.1987 7.72528L23.2915 7.49579C23.5903 6.75721 24.1035 6.12475 24.7642 5.67938C25.4247 5.2341 26.2029 4.99586 26.9995 4.99579ZM23.3472 42.9167C23.614 43.6726 24.1088 44.3268 24.7632 44.7897C25.4175 45.2527 26.199 45.5015 27.0005 45.5016C27.8022 45.5016 28.5843 45.2528 29.2388 44.7897C29.8931 44.3268 30.388 43.6726 30.6548 42.9167L30.8901 42.2497H23.1118L23.3472 42.9167ZM26.9995 10.7497C23.8833 10.7498 20.8944 11.9876 18.6909 14.1911C16.4874 16.3946 15.2496 19.3835 15.2495 22.4997V33.7497C15.2496 34.052 15.1719 34.349 15.0239 34.611L14.9556 34.7214L12.7886 37.9724L12.271 38.7497H41.7261L41.2085 37.9724L39.0415 34.7214C38.8507 34.4337 38.7489 34.0959 38.7495 33.7507V22.4997C38.7494 19.3835 37.5116 16.3946 35.3081 14.1911C33.1046 11.9878 30.1157 10.7497 26.9995 10.7497Z" fill="#004342" stroke="#D6F8F9"/>
</svg>
