<svg width="50" height="50" viewBox="0 0 50 50" fill="none" xmlns="http://www.w3.org/2000/svg">
<path d="M33.3332 20.8333C33.3332 23.0435 32.4552 25.1631 30.8924 26.7259C29.3296 28.2887 27.21 29.1667 24.9998 29.1667C22.7897 29.1667 20.6701 28.2887 19.1073 26.7259C17.5445 25.1631 16.6665 23.0435 16.6665 20.8333C16.6665 18.6232 17.5445 16.5036 19.1073 14.9408C20.6701 13.378 22.7897 12.5 24.9998 12.5C27.21 12.5 29.3296 13.378 30.8924 14.9408C32.4552 16.5036 33.3332 18.6232 33.3332 20.8333Z" fill="#004342"/>
<path fill-rule="evenodd" clip-rule="evenodd" d="M24.1498 45.8167C13.0384 45.3708 4.1665 36.2208 4.1665 25C4.1665 13.4938 13.4936 4.16667 24.9998 4.16667C36.5061 4.16667 45.8332 13.4938 45.8332 25C45.8332 36.5063 36.5061 45.8333 24.9998 45.8333H24.7144C24.5255 45.8333 24.3373 45.8278 24.1498 45.8167ZM11.6311 38.1458C11.4753 37.6985 11.4223 37.2219 11.476 36.7512C11.5296 36.2806 11.6886 35.8281 11.9411 35.4274C12.1935 35.0266 12.533 34.6878 12.9343 34.4362C13.3357 34.1846 13.7885 34.0266 14.2592 33.974C22.38 33.075 27.6696 33.1563 35.7509 33.9927C36.2222 34.0418 36.6762 34.1978 37.0781 34.4488C37.4801 34.6999 37.8195 35.0393 38.0704 35.4414C38.3213 35.8434 38.4772 36.2974 38.5262 36.7687C38.5752 37.2401 38.5159 37.7164 38.353 38.1615C41.8166 34.6573 43.7563 29.9271 43.7498 25C43.7498 14.6448 35.355 6.25001 24.9998 6.25001C14.6446 6.25001 6.24984 14.6448 6.24984 25C6.24984 30.1208 8.30296 34.7625 11.6311 38.1458Z" fill="#004342"/>
</svg>
